<mxfile host="65bd71144e" modified="2020-12-14T17:54:19.105Z" agent="5.0 (Macintosh; Intel Mac OS X 10_15_6) AppleWebKit/537.36 (KHTML, like Gecko) Code/1.52.0 Chrome/83.0.4103.122 Electron/9.3.5 Safari/537.36" version="13.10.0" etag="XTTAo2xqn2rkQvJSux2x" type="embed">
    <diagram id="Dcrq5JZs9aR9jM6ZTgnV" name="Page-1">
        <mxGraphModel dx="1854" dy="1184" grid="1" gridSize="10" guides="1" tooltips="1" connect="1" arrows="1" fold="1" page="1" pageScale="1" pageWidth="827" pageHeight="1169" math="0" shadow="0">
            <root>
                <mxCell id="0"/>
                <mxCell id="1" parent="0"/>
                <mxCell id="vG3_yeTdJCe7sarF-GK0-89" style="edgeStyle=orthogonalEdgeStyle;rounded=0;orthogonalLoop=1;jettySize=auto;html=1;entryX=0.5;entryY=0;entryDx=0;entryDy=0;" parent="1" source="2" target="3" edge="1">
                    <mxGeometry relative="1" as="geometry"/>
                </mxCell>
                <mxCell id="2" value="App.js" style="rounded=1;whiteSpace=wrap;html=1;" parent="1" vertex="1">
                    <mxGeometry x="-347" y="20" width="80" height="40" as="geometry"/>
                </mxCell>
                <mxCell id="31" style="edgeStyle=orthogonalEdgeStyle;rounded=0;orthogonalLoop=1;jettySize=auto;html=1;entryX=0.5;entryY=0;entryDx=0;entryDy=0;strokeColor=#990000;" parent="1" target="6" edge="1">
                    <mxGeometry relative="1" as="geometry">
                        <mxPoint x="-360" y="87" as="sourcePoint"/>
                        <Array as="points">
                            <mxPoint x="-360" y="100"/>
                            <mxPoint x="-670" y="100"/>
                        </Array>
                    </mxGeometry>
                </mxCell>
                <mxCell id="32" style="edgeStyle=orthogonalEdgeStyle;rounded=0;orthogonalLoop=1;jettySize=auto;html=1;entryX=0.5;entryY=0;entryDx=0;entryDy=0;fillColor=#4D9900;strokeColor=#4D9900;" parent="1" target="4" edge="1">
                    <mxGeometry relative="1" as="geometry">
                        <mxPoint x="-360" y="87" as="sourcePoint"/>
                        <Array as="points">
                            <mxPoint x="-360" y="100"/>
                            <mxPoint x="-530" y="100"/>
                        </Array>
                    </mxGeometry>
                </mxCell>
                <mxCell id="33" style="edgeStyle=orthogonalEdgeStyle;rounded=0;orthogonalLoop=1;jettySize=auto;html=1;entryX=0.5;entryY=0;entryDx=0;entryDy=0;exitX=0;exitY=0.5;exitDx=0;exitDy=0;strokeColor=#99004D;" parent="1" source="3" target="7" edge="1">
                    <mxGeometry relative="1" as="geometry">
                        <mxPoint x="-375" y="87" as="sourcePoint"/>
                        <Array as="points">
                            <mxPoint x="-375" y="100"/>
                        </Array>
                    </mxGeometry>
                </mxCell>
                <mxCell id="36" style="edgeStyle=orthogonalEdgeStyle;rounded=0;orthogonalLoop=1;jettySize=auto;html=1;strokeColor=#009999;" parent="1" target="10" edge="1">
                    <mxGeometry relative="1" as="geometry">
                        <mxPoint x="-254" y="87" as="sourcePoint"/>
                        <Array as="points">
                            <mxPoint x="-254" y="100"/>
                            <mxPoint x="10" y="100"/>
                        </Array>
                    </mxGeometry>
                </mxCell>
                <mxCell id="3" value="Administration.js" style="rounded=1;whiteSpace=wrap;html=1;" parent="1" vertex="1">
                    <mxGeometry x="-360" y="80" width="106" height="40" as="geometry"/>
                </mxCell>
                <mxCell id="4" value="TopBar.js" style="rounded=1;whiteSpace=wrap;html=1;strokeColor=#4D9900;" parent="1" vertex="1">
                    <mxGeometry x="-585" y="137" width="110" height="40" as="geometry"/>
                </mxCell>
                <mxCell id="13" style="edgeStyle=orthogonalEdgeStyle;rounded=0;orthogonalLoop=1;jettySize=auto;html=1;exitX=0.5;exitY=1;exitDx=0;exitDy=0;entryX=0.5;entryY=0;entryDx=0;entryDy=0;strokeColor=#990000;" parent="1" source="6" target="11" edge="1">
                    <mxGeometry relative="1" as="geometry"/>
                </mxCell>
                <mxCell id="14" style="edgeStyle=orthogonalEdgeStyle;rounded=0;orthogonalLoop=1;jettySize=auto;html=1;entryX=0.75;entryY=0;entryDx=0;entryDy=0;strokeColor=#990000;" parent="1" source="6" target="12" edge="1">
                    <mxGeometry relative="1" as="geometry">
                        <Array as="points">
                            <mxPoint x="-670" y="197"/>
                            <mxPoint x="-750" y="197"/>
                        </Array>
                    </mxGeometry>
                </mxCell>
                <mxCell id="6" value="Menu.js" style="rounded=1;whiteSpace=wrap;html=1;strokeColor=#990000;" parent="1" vertex="1">
                    <mxGeometry x="-710" y="137" width="80" height="40" as="geometry"/>
                </mxCell>
                <mxCell id="37" style="edgeStyle=orthogonalEdgeStyle;rounded=0;orthogonalLoop=1;jettySize=auto;html=1;entryX=0.5;entryY=0;entryDx=0;entryDy=0;strokeColor=#99004D;" parent="1" source="7" target="17" edge="1">
                    <mxGeometry relative="1" as="geometry">
                        <Array as="points">
                            <mxPoint x="-375" y="187"/>
                            <mxPoint x="-505" y="187"/>
                        </Array>
                    </mxGeometry>
                </mxCell>
                <mxCell id="38" style="edgeStyle=orthogonalEdgeStyle;rounded=0;orthogonalLoop=1;jettySize=auto;html=1;entryX=0.5;entryY=0;entryDx=0;entryDy=0;strokeColor=#99004D;" parent="1" source="7" target="16" edge="1">
                    <mxGeometry relative="1" as="geometry"/>
                </mxCell>
                <mxCell id="39" style="edgeStyle=orthogonalEdgeStyle;rounded=0;orthogonalLoop=1;jettySize=auto;html=1;entryX=0.5;entryY=0;entryDx=0;entryDy=0;strokeColor=#99004D;" parent="1" source="7" target="18" edge="1">
                    <mxGeometry relative="1" as="geometry">
                        <Array as="points">
                            <mxPoint x="-375" y="187"/>
                            <mxPoint x="-248" y="187"/>
                        </Array>
                    </mxGeometry>
                </mxCell>
                <mxCell id="7" value="MainAdmin.js" style="rounded=1;whiteSpace=wrap;html=1;strokeColor=#99004D;" parent="1" vertex="1">
                    <mxGeometry x="-430" y="137" width="110" height="40" as="geometry"/>
                </mxCell>
                <mxCell id="45" style="edgeStyle=orthogonalEdgeStyle;rounded=0;orthogonalLoop=1;jettySize=auto;html=1;entryX=0.488;entryY=-0.086;entryDx=0;entryDy=0;entryPerimeter=0;strokeColor=#000099;" parent="1" target="42" edge="1">
                    <mxGeometry relative="1" as="geometry">
                        <mxPoint x="-110" y="137" as="sourcePoint"/>
                        <Array as="points">
                            <mxPoint x="-110" y="327"/>
                            <mxPoint x="-331" y="327"/>
                        </Array>
                    </mxGeometry>
                </mxCell>
                <mxCell id="46" style="edgeStyle=orthogonalEdgeStyle;rounded=0;orthogonalLoop=1;jettySize=auto;html=1;strokeColor=#000099;" parent="1" target="43" edge="1">
                    <mxGeometry relative="1" as="geometry">
                        <mxPoint x="-110" y="137" as="sourcePoint"/>
                        <Array as="points">
                            <mxPoint x="-110" y="327"/>
                            <mxPoint x="-210" y="327"/>
                        </Array>
                    </mxGeometry>
                </mxCell>
                <mxCell id="47" style="edgeStyle=orthogonalEdgeStyle;rounded=0;orthogonalLoop=1;jettySize=auto;html=1;entryX=0.5;entryY=0;entryDx=0;entryDy=0;strokeColor=#000099;" parent="1" target="44" edge="1">
                    <mxGeometry relative="1" as="geometry">
                        <mxPoint x="-110" y="137" as="sourcePoint"/>
                        <Array as="points">
                            <mxPoint x="-110" y="327"/>
                            <mxPoint x="-76" y="327"/>
                        </Array>
                    </mxGeometry>
                </mxCell>
                <mxCell id="8" value="Chat.js" style="rounded=1;whiteSpace=wrap;html=1;strokeColor=#000099;" parent="1" vertex="1">
                    <mxGeometry x="-150" y="137" width="80" height="40" as="geometry"/>
                </mxCell>
                <mxCell id="9" value="Submenu.js" style="rounded=1;whiteSpace=wrap;html=1;strokeColor=#999900;" parent="1" vertex="1">
                    <mxGeometry x="-273" y="137" width="80" height="40" as="geometry"/>
                </mxCell>
                <mxCell id="82" style="edgeStyle=orthogonalEdgeStyle;rounded=0;orthogonalLoop=1;jettySize=auto;html=1;entryX=0.5;entryY=0;entryDx=0;entryDy=0;strokeColor=#009999;" parent="1" source="10" target="68" edge="1">
                    <mxGeometry relative="1" as="geometry">
                        <Array as="points">
                            <mxPoint x="11" y="197"/>
                            <mxPoint x="11" y="197"/>
                        </Array>
                    </mxGeometry>
                </mxCell>
                <mxCell id="83" style="edgeStyle=orthogonalEdgeStyle;rounded=0;orthogonalLoop=1;jettySize=auto;html=1;entryX=0.5;entryY=0;entryDx=0;entryDy=0;strokeColor=#009999;" parent="1" source="10" target="70" edge="1">
                    <mxGeometry relative="1" as="geometry"/>
                </mxCell>
                <mxCell id="10" value="Planner.js" style="rounded=1;whiteSpace=wrap;html=1;strokeColor=#009999;" parent="1" vertex="1">
                    <mxGeometry x="-30" y="137" width="80" height="40" as="geometry"/>
                </mxCell>
                <mxCell id="11" value="MenuNav.js" style="rounded=1;whiteSpace=wrap;html=1;strokeColor=#990000;" parent="1" vertex="1">
                    <mxGeometry x="-710" y="217" width="80" height="40" as="geometry"/>
                </mxCell>
                <mxCell id="12" value="Profile.js" style="rounded=1;whiteSpace=wrap;html=1;strokeColor=#990000;" parent="1" vertex="1">
                    <mxGeometry x="-810" y="217" width="80" height="40" as="geometry"/>
                </mxCell>
                <mxCell id="16" value="FlterUsers.js" style="rounded=1;whiteSpace=wrap;html=1;strokeColor=#99004D;" parent="1" vertex="1">
                    <mxGeometry x="-430" y="207" width="111" height="40.36" as="geometry"/>
                </mxCell>
                <mxCell id="41" style="edgeStyle=orthogonalEdgeStyle;rounded=0;orthogonalLoop=1;jettySize=auto;html=1;entryX=0.5;entryY=0;entryDx=0;entryDy=0;strokeColor=#99004D;" parent="1" source="17" target="27" edge="1">
                    <mxGeometry relative="1" as="geometry">
                        <mxPoint x="-505" y="500" as="targetPoint"/>
                        <Array as="points">
                            <mxPoint x="-489" y="540"/>
                            <mxPoint x="-295" y="540"/>
                        </Array>
                    </mxGeometry>
                </mxCell>
                <mxCell id="50" style="edgeStyle=orthogonalEdgeStyle;rounded=0;orthogonalLoop=1;jettySize=auto;html=1;strokeColor=#99004D;" parent="1" source="17" target="24" edge="1">
                    <mxGeometry relative="1" as="geometry">
                        <Array as="points">
                            <mxPoint x="-489" y="540"/>
                            <mxPoint x="-424" y="540"/>
                        </Array>
                    </mxGeometry>
                </mxCell>
                <mxCell id="51" style="edgeStyle=orthogonalEdgeStyle;rounded=0;orthogonalLoop=1;jettySize=auto;html=1;strokeColor=#99004D;" parent="1" source="17" target="21" edge="1">
                    <mxGeometry relative="1" as="geometry">
                        <Array as="points">
                            <mxPoint x="-489" y="540"/>
                            <mxPoint x="-160" y="540"/>
                        </Array>
                    </mxGeometry>
                </mxCell>
                <mxCell id="52" style="edgeStyle=orthogonalEdgeStyle;rounded=0;orthogonalLoop=1;jettySize=auto;html=1;strokeColor=#99004D;" parent="1" source="17" target="25" edge="1">
                    <mxGeometry relative="1" as="geometry">
                        <Array as="points">
                            <mxPoint x="-489" y="540"/>
                            <mxPoint x="-27" y="540"/>
                        </Array>
                    </mxGeometry>
                </mxCell>
                <mxCell id="53" style="edgeStyle=orthogonalEdgeStyle;rounded=0;orthogonalLoop=1;jettySize=auto;html=1;entryX=0.5;entryY=0;entryDx=0;entryDy=0;strokeColor=#99004D;" parent="1" target="23" edge="1">
                    <mxGeometry relative="1" as="geometry">
                        <mxPoint x="-489" y="248" as="sourcePoint"/>
                        <mxPoint x="-764" y="576" as="targetPoint"/>
                        <Array as="points">
                            <mxPoint x="-489" y="248"/>
                            <mxPoint x="-489" y="540"/>
                            <mxPoint x="-554" y="540"/>
                        </Array>
                    </mxGeometry>
                </mxCell>
                <mxCell id="54" style="edgeStyle=orthogonalEdgeStyle;rounded=0;orthogonalLoop=1;jettySize=auto;html=1;entryX=0.5;entryY=0;entryDx=0;entryDy=0;strokeColor=#99004D;" parent="1" source="17" target="20" edge="1">
                    <mxGeometry relative="1" as="geometry">
                        <mxPoint x="-504.99999999999955" y="263" as="sourcePoint"/>
                        <Array as="points">
                            <mxPoint x="-489" y="540"/>
                            <mxPoint x="-684" y="540"/>
                        </Array>
                    </mxGeometry>
                </mxCell>
                <mxCell id="55" style="edgeStyle=orthogonalEdgeStyle;rounded=0;orthogonalLoop=1;jettySize=auto;html=1;entryX=0.5;entryY=0;entryDx=0;entryDy=0;strokeColor=#99004D;" parent="1" target="26" edge="1">
                    <mxGeometry relative="1" as="geometry">
                        <mxPoint x="-489" y="248" as="sourcePoint"/>
                        <mxPoint x="-104" y="576" as="targetPoint"/>
                        <Array as="points">
                            <mxPoint x="-489" y="248"/>
                            <mxPoint x="-489" y="540"/>
                            <mxPoint x="106" y="540"/>
                        </Array>
                    </mxGeometry>
                </mxCell>
                <mxCell id="56" style="edgeStyle=orthogonalEdgeStyle;rounded=0;orthogonalLoop=1;jettySize=auto;html=1;exitX=0.5;exitY=1;exitDx=0;exitDy=0;strokeColor=#99004D;" parent="1" source="17" target="22" edge="1">
                    <mxGeometry relative="1" as="geometry">
                        <mxPoint x="-504.99999999999955" y="263" as="sourcePoint"/>
                        <Array as="points">
                            <mxPoint x="-489" y="247"/>
                            <mxPoint x="-489" y="540"/>
                            <mxPoint x="236" y="540"/>
                        </Array>
                    </mxGeometry>
                </mxCell>
                <mxCell id="17" value="ViewProfile.js" style="rounded=1;whiteSpace=wrap;html=1;strokeColor=#99004D;" parent="1" vertex="1">
                    <mxGeometry x="-560" y="207" width="110" height="40" as="geometry"/>
                </mxCell>
                <mxCell id="40" style="edgeStyle=orthogonalEdgeStyle;rounded=0;orthogonalLoop=1;jettySize=auto;html=1;strokeColor=#99004D;" parent="1" source="18" target="19" edge="1">
                    <mxGeometry relative="1" as="geometry"/>
                </mxCell>
                <mxCell id="18" value="UserList.js" style="rounded=1;whiteSpace=wrap;html=1;strokeColor=#99004D;" parent="1" vertex="1">
                    <mxGeometry x="-303" y="207" width="110" height="40" as="geometry"/>
                </mxCell>
                <mxCell id="19" value="UserCard.js" style="rounded=1;whiteSpace=wrap;html=1;strokeColor=#99004D;" parent="1" vertex="1">
                    <mxGeometry x="-303" y="267" width="110" height="40" as="geometry"/>
                </mxCell>
                <mxCell id="20" value="Person.js" style="rounded=1;whiteSpace=wrap;html=1;strokeColor=#99004D;" parent="1" vertex="1">
                    <mxGeometry x="-739" y="575" width="110" height="40" as="geometry"/>
                </mxCell>
                <mxCell id="21" value="Contact.js" style="rounded=1;whiteSpace=wrap;html=1;strokeColor=#99004D;" parent="1" vertex="1">
                    <mxGeometry x="-215" y="575" width="110" height="40" as="geometry"/>
                </mxCell>
                <mxCell id="22" value="ProfileNav.js" style="rounded=1;whiteSpace=wrap;html=1;strokeColor=#99004D;" parent="1" vertex="1">
                    <mxGeometry x="181" y="575" width="110" height="40" as="geometry"/>
                </mxCell>
                <mxCell id="23" value="Private.js" style="rounded=1;whiteSpace=wrap;html=1;strokeColor=#99004D;" parent="1" vertex="1">
                    <mxGeometry x="-609" y="575" width="110" height="40" as="geometry"/>
                </mxCell>
                <mxCell id="24" value="Work.js" style="rounded=1;whiteSpace=wrap;html=1;strokeColor=#99004D;" parent="1" vertex="1">
                    <mxGeometry x="-479" y="575" width="110" height="40" as="geometry"/>
                </mxCell>
                <mxCell id="57" style="edgeStyle=orthogonalEdgeStyle;rounded=0;orthogonalLoop=1;jettySize=auto;html=1;entryX=0.5;entryY=0;entryDx=0;entryDy=0;strokeColor=#99004D;" parent="1" source="25" target="30" edge="1">
                    <mxGeometry relative="1" as="geometry"/>
                </mxCell>
                <mxCell id="58" style="edgeStyle=orthogonalEdgeStyle;rounded=0;orthogonalLoop=1;jettySize=auto;html=1;strokeColor=#99004D;" parent="1" source="25" target="29" edge="1">
                    <mxGeometry relative="1" as="geometry"/>
                </mxCell>
                <mxCell id="25" value="UserForm.js" style="rounded=1;whiteSpace=wrap;html=1;strokeColor=#99004D;" parent="1" vertex="1">
                    <mxGeometry x="-82" y="575" width="110" height="40" as="geometry"/>
                </mxCell>
                <mxCell id="26" value="DeleteModal.js" style="rounded=1;whiteSpace=wrap;html=1;strokeColor=#99004D;" parent="1" vertex="1">
                    <mxGeometry x="51" y="575" width="110" height="40" as="geometry"/>
                </mxCell>
                <mxCell id="27" value="WorkLoad.js" style="rounded=1;whiteSpace=wrap;html=1;strokeColor=#99004D;" parent="1" vertex="1">
                    <mxGeometry x="-350" y="575" width="110" height="40" as="geometry"/>
                </mxCell>
                <mxCell id="63" style="edgeStyle=orthogonalEdgeStyle;rounded=0;orthogonalLoop=1;jettySize=auto;html=1;entryX=0.5;entryY=0;entryDx=0;entryDy=0;strokeColor=#99004D;" parent="1" source="29" target="59" edge="1">
                    <mxGeometry relative="1" as="geometry"/>
                </mxCell>
                <mxCell id="64" style="edgeStyle=orthogonalEdgeStyle;rounded=0;orthogonalLoop=1;jettySize=auto;html=1;entryX=0.5;entryY=0;entryDx=0;entryDy=0;strokeColor=#99004D;" parent="1" source="29" target="61" edge="1">
                    <mxGeometry relative="1" as="geometry">
                        <Array as="points">
                            <mxPoint x="46" y="715"/>
                            <mxPoint x="175" y="715"/>
                        </Array>
                    </mxGeometry>
                </mxCell>
                <mxCell id="65" style="edgeStyle=orthogonalEdgeStyle;rounded=0;orthogonalLoop=1;jettySize=auto;html=1;entryX=0.5;entryY=0;entryDx=0;entryDy=0;strokeColor=#99004D;" parent="1" source="29" target="62" edge="1">
                    <mxGeometry relative="1" as="geometry">
                        <Array as="points">
                            <mxPoint x="46" y="715"/>
                            <mxPoint x="-82" y="715"/>
                        </Array>
                    </mxGeometry>
                </mxCell>
                <mxCell id="66" style="edgeStyle=orthogonalEdgeStyle;rounded=0;orthogonalLoop=1;jettySize=auto;html=1;entryX=0.5;entryY=0;entryDx=0;entryDy=0;strokeColor=#99004D;" parent="1" source="29" target="60" edge="1">
                    <mxGeometry relative="1" as="geometry">
                        <Array as="points">
                            <mxPoint x="46" y="715"/>
                            <mxPoint x="-210" y="715"/>
                        </Array>
                    </mxGeometry>
                </mxCell>
                <mxCell id="29" value="Form.js" style="rounded=1;whiteSpace=wrap;html=1;strokeColor=#99004D;" parent="1" vertex="1">
                    <mxGeometry x="-9" y="655" width="110" height="40" as="geometry"/>
                </mxCell>
                <mxCell id="30" value="FormPath.js" style="rounded=1;whiteSpace=wrap;html=1;strokeColor=#99004D;" parent="1" vertex="1">
                    <mxGeometry x="-137" y="655" width="110" height="40" as="geometry"/>
                </mxCell>
                <mxCell id="78" style="edgeStyle=orthogonalEdgeStyle;rounded=0;orthogonalLoop=1;jettySize=auto;html=1;exitX=0.5;exitY=1;exitDx=0;exitDy=0;strokeColor=#000099;" parent="1" source="42" target="77" edge="1">
                    <mxGeometry relative="1" as="geometry">
                        <Array as="points">
                            <mxPoint x="-340" y="407"/>
                            <mxPoint x="-340" y="407"/>
                        </Array>
                    </mxGeometry>
                </mxCell>
                <mxCell id="42" value="ChatNav.js" style="rounded=1;whiteSpace=wrap;html=1;strokeColor=#000099;" parent="1" vertex="1">
                    <mxGeometry x="-370" y="357" width="80" height="40" as="geometry"/>
                </mxCell>
                <mxCell id="49" style="edgeStyle=orthogonalEdgeStyle;rounded=0;orthogonalLoop=1;jettySize=auto;html=1;entryX=0.5;entryY=0;entryDx=0;entryDy=0;strokeColor=#000099;" parent="1" source="43" target="48" edge="1">
                    <mxGeometry relative="1" as="geometry"/>
                </mxCell>
                <mxCell id="43" value="MessageBoard.js" style="rounded=1;whiteSpace=wrap;html=1;strokeColor=#000099;" parent="1" vertex="1">
                    <mxGeometry x="-270" y="357" width="120" height="40" as="geometry"/>
                </mxCell>
                <mxCell id="44" value="NewMessage.js" style="rounded=1;whiteSpace=wrap;html=1;strokeColor=#000099;" parent="1" vertex="1">
                    <mxGeometry x="-133" y="357" width="113" height="40" as="geometry"/>
                </mxCell>
                <mxCell id="81" style="edgeStyle=orthogonalEdgeStyle;rounded=0;orthogonalLoop=1;jettySize=auto;html=1;entryX=0.5;entryY=0;entryDx=0;entryDy=0;strokeColor=#000099;" parent="1" source="48" target="79" edge="1">
                    <mxGeometry relative="1" as="geometry"/>
                </mxCell>
                <mxCell id="48" value="Message.js" style="rounded=1;whiteSpace=wrap;html=1;strokeColor=#000099;" parent="1" vertex="1">
                    <mxGeometry x="-260" y="417" width="100" height="40" as="geometry"/>
                </mxCell>
                <mxCell id="59" value="WorkForm.js" style="rounded=1;whiteSpace=wrap;html=1;strokeColor=#99004D;" parent="1" vertex="1">
                    <mxGeometry x="-9" y="735" width="110" height="40" as="geometry"/>
                </mxCell>
                <mxCell id="60" value="FormNav.js" style="rounded=1;whiteSpace=wrap;html=1;strokeColor=#99004D;" parent="1" vertex="1">
                    <mxGeometry x="-265" y="735" width="110" height="40" as="geometry"/>
                </mxCell>
                <mxCell id="61" value="PrivateForm.js" style="rounded=1;whiteSpace=wrap;html=1;strokeColor=#99004D;" parent="1" vertex="1">
                    <mxGeometry x="120" y="735" width="110" height="40" as="geometry"/>
                </mxCell>
                <mxCell id="62" value="PersonForm.js" style="rounded=1;whiteSpace=wrap;html=1;strokeColor=#99004D;" parent="1" vertex="1">
                    <mxGeometry x="-137" y="735" width="110" height="40" as="geometry"/>
                </mxCell>
                <mxCell id="67" value="PlannerNav.js" style="rounded=1;whiteSpace=wrap;html=1;strokeColor=#009999;" parent="1" vertex="1">
                    <mxGeometry x="-39" y="267" width="100" height="40" as="geometry"/>
                </mxCell>
                <mxCell id="68" value="NewTask.js" style="rounded=1;whiteSpace=wrap;html=1;strokeColor=#009999;" parent="1" vertex="1">
                    <mxGeometry x="-29" y="197" width="80" height="40" as="geometry"/>
                </mxCell>
                <mxCell id="87" style="edgeStyle=orthogonalEdgeStyle;rounded=0;orthogonalLoop=1;jettySize=auto;html=1;entryX=0.55;entryY=0;entryDx=0;entryDy=0;entryPerimeter=0;strokeColor=#009999;" parent="1" source="69" target="71" edge="1">
                    <mxGeometry relative="1" as="geometry"/>
                </mxCell>
                <mxCell id="69" value="PlannerList.js" style="rounded=1;whiteSpace=wrap;html=1;strokeColor=#009999;" parent="1" vertex="1">
                    <mxGeometry x="180" y="267" width="100" height="40" as="geometry"/>
                </mxCell>
                <mxCell id="84" style="edgeStyle=orthogonalEdgeStyle;rounded=0;orthogonalLoop=1;jettySize=auto;html=1;entryX=0.489;entryY=0.037;entryDx=0;entryDy=0;entryPerimeter=0;strokeColor=#009999;" parent="1" source="70" target="67" edge="1">
                    <mxGeometry relative="1" as="geometry">
                        <Array as="points">
                            <mxPoint x="121" y="247"/>
                            <mxPoint x="10" y="247"/>
                        </Array>
                    </mxGeometry>
                </mxCell>
                <mxCell id="85" style="edgeStyle=orthogonalEdgeStyle;rounded=0;orthogonalLoop=1;jettySize=auto;html=1;entryX=0.5;entryY=0;entryDx=0;entryDy=0;strokeColor=#009999;" parent="1" source="70" target="72" edge="1">
                    <mxGeometry relative="1" as="geometry"/>
                </mxCell>
                <mxCell id="86" style="edgeStyle=orthogonalEdgeStyle;rounded=0;orthogonalLoop=1;jettySize=auto;html=1;entryX=0.5;entryY=0;entryDx=0;entryDy=0;strokeColor=#009999;" parent="1" source="70" target="69" edge="1">
                    <mxGeometry relative="1" as="geometry">
                        <Array as="points">
                            <mxPoint x="121" y="247"/>
                            <mxPoint x="230" y="247"/>
                        </Array>
                    </mxGeometry>
                </mxCell>
                <mxCell id="70" value="MainPlanner.js" style="rounded=1;whiteSpace=wrap;html=1;strokeColor=#009999;" parent="1" vertex="1">
                    <mxGeometry x="71" y="197" width="100" height="40" as="geometry"/>
                </mxCell>
                <mxCell id="88" style="edgeStyle=orthogonalEdgeStyle;rounded=0;orthogonalLoop=1;jettySize=auto;html=1;entryX=0.5;entryY=0;entryDx=0;entryDy=0;strokeColor=#009999;" parent="1" source="71" target="75" edge="1">
                    <mxGeometry relative="1" as="geometry"/>
                </mxCell>
                <mxCell id="71" value="Card.js" style="rounded=1;whiteSpace=wrap;html=1;strokeColor=#009999;" parent="1" vertex="1">
                    <mxGeometry x="190" y="327" width="80" height="40" as="geometry"/>
                </mxCell>
                <mxCell id="72" value="FilterTask.js" style="rounded=1;whiteSpace=wrap;html=1;strokeColor=#009999;" parent="1" vertex="1">
                    <mxGeometry x="81" y="267" width="80" height="40" as="geometry"/>
                </mxCell>
                <mxCell id="89" style="edgeStyle=orthogonalEdgeStyle;rounded=0;orthogonalLoop=1;jettySize=auto;html=1;entryX=0.5;entryY=0;entryDx=0;entryDy=0;strokeColor=#009999;" parent="1" source="75" target="76" edge="1">
                    <mxGeometry relative="1" as="geometry"/>
                </mxCell>
                <mxCell id="75" value="EditForm.js" style="rounded=1;whiteSpace=wrap;html=1;strokeColor=#009999;" parent="1" vertex="1">
                    <mxGeometry x="185" y="387" width="90" height="40" as="geometry"/>
                </mxCell>
                <mxCell id="76" value="DeleteModal.js" style="rounded=1;whiteSpace=wrap;html=1;strokeColor=#009999;" parent="1" vertex="1">
                    <mxGeometry x="165" y="447" width="130" height="40" as="geometry"/>
                </mxCell>
                <mxCell id="77" value="FilterMessages.js" style="rounded=1;whiteSpace=wrap;html=1;strokeColor=#000099;" parent="1" vertex="1">
                    <mxGeometry x="-410" y="417" width="124" height="40" as="geometry"/>
                </mxCell>
                <mxCell id="79" value="DeleteModal.js" style="rounded=1;whiteSpace=wrap;html=1;strokeColor=#000099;" parent="1" vertex="1">
                    <mxGeometry x="-260" y="477" width="100" height="40" as="geometry"/>
                </mxCell>
                <mxCell id="35" style="edgeStyle=orthogonalEdgeStyle;rounded=0;orthogonalLoop=1;jettySize=auto;html=1;strokeColor=#000099;" parent="1" target="8" edge="1">
                    <mxGeometry relative="1" as="geometry">
                        <mxPoint x="-254" y="100" as="sourcePoint"/>
                        <Array as="points">
                            <mxPoint x="-254" y="100"/>
                            <mxPoint x="-110" y="100"/>
                        </Array>
                    </mxGeometry>
                </mxCell>
                <mxCell id="34" style="edgeStyle=orthogonalEdgeStyle;rounded=0;orthogonalLoop=1;jettySize=auto;html=1;entryX=0.5;entryY=0;entryDx=0;entryDy=0;strokeColor=#999900;" parent="1" target="9" edge="1">
                    <mxGeometry relative="1" as="geometry">
                        <mxPoint x="-240" y="127" as="targetPoint"/>
                        <mxPoint x="-254" y="100" as="sourcePoint"/>
                        <Array as="points">
                            <mxPoint x="-254" y="100"/>
                            <mxPoint x="-233" y="100"/>
                        </Array>
                    </mxGeometry>
                </mxCell>
            </root>
        </mxGraphModel>
    </diagram>
</mxfile>